<svg version="1.2" xmlns="http://www.w3.org/2000/svg" viewBox="0 0 256 256" width="256" height="256">
	<style>
		.s0 { fill: #fece0a } 
		.s1 { fill: none;stroke: #000000;stroke-linecap: round;stroke-linejoin: round;stroke-width: 24 } 
	</style>
	<path fill-rule="evenodd" class="s0" d="m24 0h208c13.25 0 24 10.75 24 24v208c0 13.25-10.75 24-24 24h-208c-13.25 0-24-10.75-24-24v-208c0-13.25 10.75-24 24-24zm96 182.31v-134.96"/>
	<path class="s1" d="m153.59 136.55c-3.67-1.08-7.14-2.73-10.28-4.91-3.14-2.17-5.91-4.84-8.2-7.89-2.29-3.06-4.07-6.46-5.28-10.08-1.21-3.63-1.83-7.42-1.83-11.24 0 3.82-0.62 7.61-1.83 11.24-1.21 3.62-2.99 7.02-5.28 10.08-2.29 3.05-5.06 5.72-8.2 7.89-3.14 2.18-6.61 3.83-10.28 4.91"/>
	<path class="s1" d="m175.74 81.11c3.98-6.89 4.53-15.23 1.48-22.58-3.04-7.35-9.33-12.87-17.01-14.93-7.69-2.06-15.89-0.42-22.2 4.42-6.31 4.84-10.01 12.34-10.01 20.3 0-7.96-3.7-15.46-10.01-20.3-6.31-4.84-14.51-6.48-22.2-4.42-7.68 2.06-13.97 7.58-17.01 14.93-3.05 7.35-2.5 15.69 1.48 22.58"/>
	<path class="s1" d="m179.14 69.38c5.02 1.29 9.67 3.71 13.61 7.06 3.95 3.35 7.07 7.56 9.15 12.3 2.08 4.74 3.05 9.9 2.84 15.07-0.21 5.17-1.6 10.23-4.05 14.78"/>
	<path class="s1" d="m179.17 179.19c7.51 0 14.81-2.48 20.77-7.05 5.95-4.57 10.24-10.98 12.18-18.24 1.94-7.25 1.44-14.94-1.43-21.88-2.88-6.94-7.96-12.73-14.46-16.49"/>
	<path class="s1" d="m195.95 174.78c1.2 9.34-1.51 18.78-7.5 26.05-5.99 7.28-14.72 11.75-24.13 12.36-9.4 0.61-18.64-2.69-25.52-9.14-6.88-6.44-10.79-15.44-10.8-24.86-0.01 9.42-3.92 18.42-10.8 24.86-6.88 6.45-16.12 9.75-25.52 9.14-9.41-0.61-18.14-5.08-24.13-12.36-5.99-7.27-8.7-16.71-7.5-26.05"/>
	<path class="s1" d="m76.83 179.19c-7.51 0-14.81-2.48-20.77-7.05-5.95-4.57-10.24-10.98-12.18-18.24-1.94-7.25-1.44-14.94 1.43-21.88 2.88-6.94 7.96-12.73 14.46-16.49"/>
	<path class="s1" d="m76.86 69.38c-5.02 1.29-9.67 3.71-13.61 7.06-3.95 3.35-7.07 7.56-9.15 12.3-2.08 4.74-3.05 9.9-2.84 15.07 0.21 5.17 1.6 10.23 4.05 14.78"/>
</svg>